<svg width="164" height="40" viewBox="0 0 164 40" fill="none" xmlns="http://www.w3.org/2000/svg">
<path d="M8.18213 11.5846C8.59434 11.4599 9.03364 11.3924 9.49206 11.3924H30.5085C30.9669 11.3924 31.4062 11.4599 31.8184 11.5846C31.8178 10.391 31.8053 9.77042 31.5608 9.29057C31.3342 8.84582 30.9726 8.48423 30.5279 8.25762C30.0223 8 29.3604 8 28.0366 8H11.9639C10.6402 8 9.97827 8 9.47266 8.25762C9.02792 8.48423 8.66633 8.84582 8.43972 9.29057C8.19522 9.77041 8.18276 10.391 8.18213 11.5846Z" fill="#FBC63A"/>
<path fill-rule="evenodd" clip-rule="evenodd" d="M31.3585 22.7595L32.9244 16.496C33.3174 14.9241 32.1285 13.4014 30.5082 13.4014H9.49178C7.8715 13.4014 6.68261 14.9241 7.07559 16.496L8.64148 22.7595C8.74063 23.1561 8.74063 23.571 8.64148 23.9676L7.07559 30.2312C6.68261 31.8031 7.8715 33.3258 9.49178 33.3258H30.5082C32.1285 33.3258 33.3174 31.8031 32.9244 30.2312L31.3585 23.9676C31.2594 23.571 31.2594 23.1561 31.3585 22.7595Z" fill="#2845C1"/>
<path d="M49.4789 11.0943C50.451 11.0943 51.3549 11.231 52.1904 11.5044C53.0258 11.7779 53.7778 12.1576 54.4461 12.6437C55.1297 13.1298 55.7145 13.6995 56.2006 14.3526L53.9904 16.0616C53.6714 15.5907 53.2841 15.1805 52.8284 14.8311C52.3726 14.4818 51.8638 14.2083 51.3017 14.0109C50.7549 13.8134 50.1548 13.7146 49.5016 13.7146C48.6814 13.7146 47.9294 13.8665 47.2459 14.1704C46.5775 14.459 45.9926 14.8691 45.4914 15.4008C44.9901 15.9325 44.6027 16.5477 44.3293 17.2464C44.071 17.9452 43.9419 18.7047 43.9419 19.525C43.9419 20.3453 44.071 21.1048 44.3293 21.8036C44.6027 22.5023 44.9901 23.1175 45.4914 23.6492C45.9926 24.1809 46.5775 24.5986 47.2459 24.9024C47.9294 25.191 48.6814 25.3354 49.5016 25.3354C50.4738 25.3354 51.3397 25.1227 52.0992 24.6974C52.8739 24.2568 53.5043 23.6872 53.9904 22.9884L56.2006 24.6974C55.7145 25.3505 55.1297 25.9278 54.4461 26.4291C53.7778 26.9152 53.0258 27.2873 52.1904 27.5456C51.3701 27.819 50.4738 27.9557 49.5016 27.9557C48.2408 27.9557 47.094 27.7355 46.061 27.2949C45.028 26.8392 44.1318 26.224 43.3723 25.4493C42.628 24.6746 42.0507 23.7783 41.6406 22.7606C41.2456 21.7428 41.0481 20.6643 41.0481 19.525C41.0481 18.3857 41.2456 17.3072 41.6406 16.2894C42.0507 15.2717 42.628 14.3754 43.3723 13.6007C44.1318 12.826 45.028 12.2184 46.061 11.7779C47.094 11.3221 48.2332 11.0943 49.4789 11.0943ZM62.3142 17.7705C61.7217 17.7705 61.1825 17.8996 60.6964 18.1579C60.2255 18.4161 59.8305 18.7731 59.5115 19.2288L57.6659 17.8161C58.1672 17.1173 58.8203 16.5705 59.6254 16.1755C60.4457 15.7654 61.3723 15.5603 62.4053 15.5603C63.4534 15.5603 64.3421 15.7502 65.0712 16.1299C65.8004 16.5097 66.3472 17.0338 66.7118 17.7021C67.0916 18.3705 67.2814 19.1225 67.2814 19.9579V27.5H64.775V25.4721V19.9579C64.775 19.2744 64.5472 18.7427 64.0914 18.3629C63.6357 17.968 63.0433 17.7705 62.3142 17.7705ZM61.1521 27.8418C60.028 27.8418 59.109 27.538 58.395 26.9304C57.6811 26.3227 57.3241 25.51 57.3241 24.4923C57.3241 23.6264 57.6507 22.8897 58.3039 22.2821C58.9571 21.6745 59.8989 21.2719 61.1293 21.0744L64.8889 20.4364L65.3447 22.1454L61.7673 22.7378C61.0837 22.8441 60.59 23.0416 60.2862 23.3302C59.9824 23.6036 59.8305 23.953 59.8305 24.3784C59.8305 24.8037 59.99 25.1531 60.309 25.4265C60.6432 25.6999 61.0913 25.8366 61.6534 25.8366C62.3521 25.8366 62.9673 25.6771 63.499 25.3581C64.0307 25.0391 64.4636 24.6138 64.7978 24.0821L65.1624 25.6088C64.9801 26.0493 64.6763 26.4367 64.2509 26.7709C63.8408 27.105 63.3623 27.3633 62.8154 27.5456C62.2686 27.743 61.7141 27.8418 61.1521 27.8418ZM70.1628 27.5V10.4107H72.6692V27.5H70.1628ZM81.1554 27.9557C79.8187 27.9557 78.6794 27.6747 77.7376 27.1126C76.7958 26.5354 76.0742 25.7759 75.5729 24.8341C75.0717 23.8923 74.821 22.8669 74.821 21.758C74.821 20.8921 74.9501 20.087 75.2084 19.3427C75.4818 18.5984 75.8692 17.9452 76.3704 17.3831C76.8717 16.8059 77.4869 16.3578 78.2161 16.0388C78.9452 15.7198 79.7655 15.5603 80.6769 15.5603C81.4669 15.5603 82.1808 15.6894 82.8188 15.9476C83.4568 16.2059 84.0037 16.5629 84.4594 17.0186C84.9303 17.4743 85.2873 18.0135 85.5303 18.6364C85.7734 19.2592 85.8949 19.9351 85.8949 20.6643C85.8949 20.9377 85.8797 21.2035 85.8493 21.4618C85.8189 21.72 85.7809 21.9327 85.7354 22.0998H76.5983V20.2769H83.7758L83.434 20.3681C83.434 19.8972 83.3201 19.4566 83.0922 19.0465C82.8796 18.6212 82.5682 18.2794 82.158 18.0211C81.7479 17.7629 81.2314 17.6338 80.6086 17.6338C79.9402 17.6338 79.3554 17.7857 78.8541 18.0895C78.368 18.3933 77.9958 18.8414 77.7376 19.4339C77.4794 20.0111 77.3502 20.725 77.3502 21.5757C77.3502 22.5023 77.5097 23.2695 77.8287 23.8771C78.1477 24.4847 78.5959 24.9404 79.1731 25.2442C79.7503 25.548 80.4035 25.6999 81.1327 25.6999C81.8162 25.6999 82.4314 25.5632 82.9783 25.2898C83.5404 25.0164 83.9885 24.6518 84.3227 24.1961L86.1227 25.6316C85.5911 26.3455 84.8999 26.9152 84.0492 27.3405C83.1986 27.7506 82.234 27.9557 81.1554 27.9557ZM88.2436 27.5V16.016H90.75V18.4769V27.5H88.2436ZM90.75 19.8212L89.6107 18.5452C89.9297 18.0439 90.2943 17.5654 90.7044 17.1097C91.1298 16.654 91.6387 16.2818 92.2311 15.9932C92.8235 15.7046 93.5147 15.5603 94.3046 15.5603C95.1553 15.5603 95.9148 15.7502 96.5832 16.1299C97.2667 16.5097 97.806 17.0717 98.2009 17.8161C98.5959 18.5604 98.7934 19.4946 98.7934 20.6187V27.5H96.2642V20.7099C96.2642 19.8288 96.0363 19.1452 95.5806 18.6591C95.1249 18.1579 94.5021 17.9072 93.7122 17.9072C93.2109 17.9072 92.7703 18.006 92.3906 18.2034C92.0108 18.3857 91.6842 18.6212 91.4108 18.9098C91.1526 19.1984 90.9323 19.5022 90.75 19.8212ZM112.901 10.4107V27.5H110.372V25.0847V10.4107H112.901ZM100.757 21.758C100.757 20.9225 100.893 20.1326 101.167 19.3883C101.44 18.644 101.828 17.9832 102.329 17.4059C102.845 16.8287 103.461 16.3806 104.175 16.0616C104.904 15.7274 105.716 15.5603 106.613 15.5603C107.418 15.5603 108.124 15.6894 108.732 15.9476C109.339 16.2059 109.871 16.578 110.327 17.0641C110.782 17.535 111.193 18.1123 111.557 18.7959L110.441 19.844C110.046 19.2212 109.544 18.7427 108.937 18.4085C108.329 18.0743 107.661 17.9072 106.932 17.9072C106.218 17.9072 105.595 18.0819 105.063 18.4313C104.532 18.7655 104.114 19.2212 103.81 19.7984C103.521 20.3757 103.377 21.0289 103.377 21.758C103.377 22.4871 103.521 23.1403 103.81 23.7176C104.114 24.2948 104.532 24.7581 105.063 25.1075C105.595 25.4417 106.218 25.6088 106.932 25.6088C107.661 25.6088 108.329 25.4417 108.937 25.1075C109.544 24.7733 110.046 24.2948 110.441 23.672L111.557 24.7201C111.193 25.3885 110.782 25.9658 110.327 26.4519C109.871 26.938 109.339 27.3101 108.732 27.5684C108.124 27.8266 107.418 27.9557 106.613 27.9557C105.413 27.9557 104.372 27.6747 103.491 27.1126C102.61 26.5354 101.934 25.7759 101.463 24.8341C100.992 23.8923 100.757 22.8669 100.757 21.758ZM115.937 27.5V16.016H118.444V18.6136V27.5H115.937ZM118.444 19.9124L117.304 18.7959C117.532 18.4161 117.79 18.0515 118.079 17.7021C118.368 17.3376 118.679 17.011 119.013 16.7224C119.347 16.4337 119.727 16.2059 120.152 16.0388C120.578 15.8717 121.056 15.7881 121.588 15.7881C121.785 15.7881 121.968 15.8033 122.135 15.8337C122.302 15.8641 122.454 15.9021 122.591 15.9476V18.4085C122.408 18.3629 122.218 18.325 122.021 18.2946C121.839 18.2642 121.618 18.249 121.36 18.249C120.889 18.249 120.464 18.325 120.084 18.4769C119.72 18.6288 119.401 18.8338 119.127 19.0921C118.854 19.3351 118.626 19.6085 118.444 19.9124ZM124.421 27.5V16.016H126.928V27.5H124.421ZM125.697 13.6007C125.393 13.6007 125.112 13.5324 124.854 13.3956C124.596 13.2437 124.391 13.0387 124.239 12.7804C124.087 12.5222 124.011 12.2412 124.011 11.9374C124.011 11.4816 124.171 11.0943 124.49 10.7753C124.824 10.4411 125.226 10.274 125.697 10.274C126.001 10.274 126.274 10.35 126.518 10.5019C126.776 10.6538 126.973 10.8588 127.11 11.1171C127.262 11.3601 127.338 11.6335 127.338 11.9374C127.338 12.2412 127.262 12.5222 127.11 12.7804C126.973 13.0387 126.776 13.2437 126.518 13.3956C126.274 13.5324 126.001 13.6007 125.697 13.6007ZM135.414 27.9557C134.077 27.9557 132.938 27.6747 131.996 27.1126C131.054 26.5354 130.333 25.7759 129.831 24.8341C129.33 23.8923 129.08 22.8669 129.08 21.758C129.08 20.8921 129.209 20.087 129.467 19.3427C129.74 18.5984 130.128 17.9452 130.629 17.3831C131.13 16.8059 131.745 16.3578 132.475 16.0388C133.204 15.7198 134.024 15.5603 134.935 15.5603C135.725 15.5603 136.439 15.6894 137.077 15.9476C137.715 16.2059 138.262 16.5629 138.718 17.0186C139.189 17.4743 139.546 18.0135 139.789 18.6364C140.032 19.2592 140.153 19.9351 140.153 20.6643C140.153 20.9377 140.138 21.2035 140.108 21.4618C140.077 21.72 140.039 21.9327 139.994 22.0998H130.857V20.2769H138.034L137.693 20.3681C137.693 19.8972 137.579 19.4566 137.351 19.0465C137.138 18.6212 136.827 18.2794 136.417 18.0211C136.006 17.7629 135.49 17.6338 134.867 17.6338C134.199 17.6338 133.614 17.7857 133.113 18.0895C132.626 18.3933 132.254 18.8414 131.996 19.4339C131.738 20.0111 131.609 20.725 131.609 21.5757C131.609 22.5023 131.768 23.2695 132.087 23.8771C132.406 24.4847 132.854 24.9404 133.432 25.2442C134.009 25.548 134.662 25.6999 135.391 25.6999C136.075 25.6999 136.69 25.5632 137.237 25.2898C137.799 25.0164 138.247 24.6518 138.581 24.1961L140.381 25.6316C139.85 26.3455 139.158 26.9152 138.308 27.3405C137.457 27.7506 136.492 27.9557 135.414 27.9557ZM142.502 27.5V16.016H145.008V18.6136V27.5H142.502ZM145.008 19.9124L143.869 18.7959C144.097 18.4161 144.355 18.0515 144.644 17.7021C144.933 17.3376 145.244 17.011 145.578 16.7224C145.912 16.4337 146.292 16.2059 146.717 16.0388C147.143 15.8717 147.621 15.7881 148.153 15.7881C148.35 15.7881 148.533 15.8033 148.7 15.8337C148.867 15.8641 149.019 15.9021 149.155 15.9476V18.4085C148.973 18.3629 148.783 18.325 148.586 18.2946C148.404 18.2642 148.183 18.249 147.925 18.249C147.454 18.249 147.029 18.325 146.649 18.4769C146.284 18.6288 145.965 18.8338 145.692 19.0921C145.419 19.3351 145.191 19.6085 145.008 19.9124ZM152.809 18.9098C152.809 19.2744 152.938 19.5782 153.196 19.8212C153.47 20.0491 153.819 20.2465 154.245 20.4136C154.67 20.5807 155.118 20.763 155.589 20.9605C156.075 21.1428 156.531 21.3706 156.956 21.6441C157.381 21.9023 157.723 22.2517 157.981 22.6922C158.255 23.1175 158.392 23.6568 158.392 24.31C158.392 25.0847 158.202 25.7455 157.822 26.2924C157.457 26.824 156.971 27.2342 156.364 27.5228C155.756 27.8114 155.088 27.9557 154.358 27.9557C153.371 27.9557 152.513 27.7734 151.784 27.4089C151.055 27.0291 150.417 26.5202 149.87 25.8822L151.579 24.3784C151.943 24.8341 152.353 25.2062 152.809 25.4949C153.265 25.7835 153.774 25.9278 154.336 25.9278C154.867 25.9278 155.27 25.7911 155.543 25.5176C155.832 25.229 155.976 24.8796 155.976 24.4695C155.976 24.0897 155.84 23.7859 155.566 23.5581C155.308 23.3302 154.966 23.1327 154.541 22.9656C154.115 22.7985 153.66 22.6239 153.174 22.4416C152.703 22.2441 152.255 22.0086 151.829 21.7352C151.404 21.4618 151.055 21.1124 150.781 20.6871C150.523 20.2465 150.394 19.6845 150.394 19.0009C150.394 18.3629 150.561 17.7857 150.895 17.2692C151.229 16.7375 151.693 16.3198 152.285 16.016C152.893 15.7122 153.584 15.5603 154.358 15.5603C155.194 15.5603 155.969 15.7426 156.683 16.1071C157.412 16.4717 157.981 16.935 158.392 17.4971L156.683 18.9554C156.394 18.5604 156.052 18.2338 155.657 17.9756C155.262 17.7173 154.829 17.5882 154.358 17.5882C154.024 17.5882 153.736 17.649 153.493 17.7705C153.265 17.892 153.09 18.0515 152.969 18.249C152.862 18.4465 152.809 18.6667 152.809 18.9098Z" fill="#2845C1"/>
</svg>
