<svg width="153" height="40" viewBox="0 0 153 40" fill="none" xmlns="http://www.w3.org/2000/svg">
<path d="M8.18213 11.5846C8.59434 11.4599 9.03364 11.3924 9.49206 11.3924H30.5085C30.9669 11.3924 31.4062 11.4599 31.8184 11.5846C31.8178 10.391 31.8053 9.77042 31.5608 9.29057C31.3342 8.84582 30.9726 8.48423 30.5279 8.25762C30.0223 8 29.3604 8 28.0366 8H11.9639C10.6402 8 9.97827 8 9.47266 8.25762C9.02792 8.48423 8.66633 8.84582 8.43972 9.29057C8.19522 9.77041 8.18276 10.391 8.18213 11.5846Z" fill="#FBC63A"/>
<path d="M24.2853 24.4406C24.2853 24.4959 24.2405 24.5406 24.1853 24.5406H21.6615C21.5786 24.5406 21.5317 24.4454 21.5823 24.3796L24.106 21.1015C24.1643 21.0259 24.2853 21.0671 24.2853 21.1625V24.4406Z" fill="#2845C1"/>
<path fill-rule="evenodd" clip-rule="evenodd" d="M31.3585 22.7595L32.9244 16.496C33.3174 14.9241 32.1285 13.4014 30.5082 13.4014H9.49178C7.8715 13.4014 6.68261 14.9241 7.07559 16.496L8.64148 22.7595C8.74063 23.1561 8.74063 23.571 8.64148 23.9676L7.07559 30.2312C6.68261 31.8031 7.8715 33.3258 9.49178 33.3258H30.5082C32.1285 33.3258 33.3174 31.8031 32.9244 30.2312L31.3585 23.9676C31.2594 23.571 31.2594 23.1561 31.3585 22.7595ZM15.1567 20.7227C15.2234 20.685 15.3059 20.7331 15.3059 20.8097V29.1573C15.3059 29.2125 15.3507 29.2573 15.4059 29.2573H17.28C17.3352 29.2573 17.38 29.2125 17.38 29.1573V18.6027C17.38 18.5475 17.3352 18.5027 17.28 18.5027H15.3942C15.3766 18.5027 15.3594 18.5074 15.3441 18.5162L12.1431 20.3686C12.0924 20.398 12.0776 20.4644 12.1111 20.5124L13.0261 21.8235C13.0557 21.8658 13.1125 21.8787 13.1574 21.8533L15.1567 20.7227ZM19.3434 24.5137C19.33 24.5312 19.3228 24.5525 19.3228 24.5745V26.315C19.3228 26.3702 19.3676 26.415 19.4228 26.415H24.1853C24.2405 26.415 24.2853 26.4598 24.2853 26.515V29.1726C24.2853 29.2279 24.33 29.2726 24.3853 29.2726H26.2593C26.3146 29.2726 26.3593 29.2279 26.3593 29.1726V26.515C26.3593 26.4598 26.4041 26.415 26.4593 26.415H27.3502C27.4054 26.415 27.4502 26.3702 27.4502 26.315V24.6406C27.4502 24.5854 27.4054 24.5406 27.3502 24.5406H26.4593C26.4041 24.5406 26.3593 24.4959 26.3593 24.4406V18.6181C26.3593 18.5629 26.3146 18.5181 26.2593 18.5181H23.9813C23.9502 18.5181 23.9208 18.5326 23.9019 18.5573L19.3434 24.5137Z" fill="#2845C1"/>
<path d="M49.13 25.514C50.89 25.514 52.276 24.656 53.156 23.402L55.62 25.294C54.212 27.208 51.924 28.44 49.13 28.44C44.268 28.44 40.946 24.7 40.946 20.3C40.946 15.9 44.268 12.16 49.13 12.16C51.924 12.16 54.212 13.414 55.62 15.284L53.156 17.198C52.276 15.944 50.89 15.086 49.13 15.086C46.226 15.086 44.158 17.352 44.158 20.3C44.158 23.248 46.226 25.514 49.13 25.514ZM60.4263 28.33C58.2043 28.33 56.6863 27.054 56.6863 25.008C56.6863 23.336 57.9843 22.082 60.3603 21.686L63.7483 21.114V20.828C63.7483 19.662 62.8683 18.914 61.5923 18.914C60.5143 18.914 59.6783 19.42 59.0843 20.234L57.0383 18.672C58.0283 17.308 59.6563 16.472 61.6803 16.472C64.8923 16.472 66.5423 18.386 66.5423 20.828V28H63.7483V26.922C63.0443 27.78 61.7243 28.33 60.4263 28.33ZM59.4583 24.876C59.4583 25.624 60.0523 26.108 60.9983 26.108C62.2743 26.108 63.1983 25.514 63.7483 24.634V23.072L61.1083 23.512C59.9423 23.71 59.4583 24.194 59.4583 24.876ZM69.3018 28V11.5H72.0958V28H69.3018ZM85.2143 26.196C84.1803 27.582 82.4643 28.44 80.3743 28.44C76.4363 28.44 74.2143 25.69 74.2143 22.456C74.2143 19.178 76.2823 16.472 79.9123 16.472C82.9923 16.472 85.0163 18.562 85.0163 21.466C85.0163 22.082 84.9283 22.654 84.8403 23.028H77.0743C77.3383 25.096 78.6143 25.932 80.3523 25.932C81.5623 25.932 82.6183 25.404 83.2123 24.612L85.2143 26.196ZM79.8463 18.76C78.4163 18.76 77.4703 19.552 77.1623 21.004H82.2663C82.2223 19.882 81.4083 18.76 79.8463 18.76ZM87.3065 28V16.912H90.1005V17.792C90.8705 17.044 91.9045 16.472 93.3785 16.472C95.7765 16.472 97.6905 18.122 97.6905 21.4V28H94.8745V21.51C94.8745 20.036 94.0385 19.112 92.6745 19.112C91.2665 19.112 90.5185 20.058 90.1005 20.762V28H87.3065ZM99.6312 22.456C99.6312 19.222 101.765 16.472 105.263 16.472C106.759 16.472 107.837 16.934 108.695 17.792V11.5H111.511V28H108.695V27.12C107.837 27.978 106.759 28.44 105.263 28.44C101.765 28.44 99.6312 25.69 99.6312 22.456ZM102.557 22.456C102.557 24.392 103.767 25.8 105.659 25.8C106.913 25.8 107.947 25.272 108.695 24.26V20.652C107.947 19.64 106.913 19.112 105.659 19.112C103.767 19.112 102.557 20.52 102.557 22.456ZM114.421 28V16.912H117.215V18.012C117.941 17.264 118.887 16.692 120.141 16.692C120.515 16.692 120.845 16.758 121.109 16.846V19.596C120.757 19.508 120.383 19.442 119.877 19.442C118.513 19.442 117.633 20.19 117.215 20.894V28H114.421ZM124.326 14.976C123.336 14.976 122.5 14.14 122.5 13.15C122.5 12.16 123.336 11.324 124.326 11.324C125.316 11.324 126.13 12.16 126.13 13.15C126.13 14.14 125.316 14.976 124.326 14.976ZM122.918 28V16.912H125.712V28H122.918ZM138.831 26.196C137.797 27.582 136.081 28.44 133.991 28.44C130.053 28.44 127.831 25.69 127.831 22.456C127.831 19.178 129.899 16.472 133.529 16.472C136.609 16.472 138.633 18.562 138.633 21.466C138.633 22.082 138.545 22.654 138.457 23.028H130.691C130.955 25.096 132.231 25.932 133.969 25.932C135.179 25.932 136.235 25.404 136.829 24.612L138.831 26.196ZM133.463 18.76C132.033 18.76 131.087 19.552 130.779 21.004H135.883C135.839 19.882 135.025 18.76 133.463 18.76ZM140.923 28V16.912H143.717V18.012C144.443 17.264 145.389 16.692 146.643 16.692C147.017 16.692 147.347 16.758 147.611 16.846V19.596C147.259 19.508 146.885 19.442 146.379 19.442C145.015 19.442 144.135 20.19 143.717 20.894V28H140.923Z" fill="#2845C1"/>
</svg>
